# Wavefront Obj file
# 
# verts: 156 uv-s: 224
mtllib Dining Chair.mtl

g Dining_Chair
#pivot 0.000000 0.000000 0.000000

v 1.400000 0.000000 1.000000
v 1.100000 2.000000 0.900000
v 1.400000 0.000000 1.200000
v 1.100000 2.000000 1.100000
v 1.200000 0.000000 1.200000
v 0.900000 2.000000 1.100000
v 1.200000 0.000000 1.100740
v 1.301741 0.000000 1.000000
v 1.229799 0.000000 1.029506
v 1.001741 2.000000 0.900000
v 0.900000 2.000000 1.000740
v 0.929799 2.000000 0.929506
v 0.940000 1.800000 1.030740
v 0.910000 2.000000 1.020740
v 0.910000 2.000000 1.070740
v 0.940000 1.800000 1.080740
v 1.039533 1.798637 0.939999
v 1.012140 1.997005 0.909999
v 1.061949 2.001363 0.909999
v 1.089342 1.802995 0.939999
v -1.399999 0.000000 1.000000
v -1.099999 2.000000 0.900000
v -1.399999 0.000000 1.200001
v -1.099999 2.000000 1.100000
v -1.199999 0.000000 1.200000
v -0.899999 2.000000 1.100000
v -1.199999 0.000000 1.100741
v -1.301740 0.000000 1.000000
v -1.229798 0.000000 1.029506
v -1.001740 2.000000 0.900000
v -0.899999 2.000000 1.000741
v -0.929798 2.000000 0.929507
v -0.939999 1.800000 1.030741
v -0.909999 2.000000 1.020741
v -0.909999 2.000000 1.070741
v -0.939999 1.800000 1.080741
v -1.039532 1.798637 0.940000
v -1.012139 1.997005 0.910000
v -1.061949 2.001363 0.910000
v -1.089342 1.802995 0.940000
v 1.400000 0.000000 -1.000000
v 1.100000 2.000000 -0.900000
v 1.400000 0.000000 -1.200001
v 1.100000 2.000000 -1.100000
v 1.200000 0.000000 -1.200000
v 0.899999 2.000000 -1.100000
v 1.200000 0.000000 -1.100741
v 1.301740 0.000000 -1.000000
v 1.229799 0.000000 -1.029506
v 1.001740 2.000000 -0.900000
v 0.900000 2.000000 -1.000741
v 0.929799 2.000000 -0.929507
v 0.939999 1.800000 -1.030741
v 0.909999 2.000000 -1.020741
v 0.909999 2.000000 -1.070741
v 0.939999 1.800000 -1.080741
v 1.039532 1.798637 -0.940000
v 1.012139 1.997005 -0.910000
v 1.061949 2.001363 -0.910000
v 1.089342 1.802995 -0.940000
v -1.400000 0.000000 -1.000000
v -1.100000 2.000000 -0.900000
v -1.400000 0.000000 -1.200000
v -1.100000 2.000000 -1.100000
v -1.200000 0.000000 -1.200000
v -0.900000 2.000000 -1.100000
v -1.200000 0.000000 -1.100740
v -1.301741 0.000000 -1.000000
v -1.229799 0.000000 -1.029506
v -1.001740 2.000000 -0.900000
v -0.900000 2.000000 -1.000740
v -0.929799 2.000000 -0.929506
v -0.940000 1.800000 -1.030740
v -0.910000 2.000000 -1.020740
v -0.910000 2.000000 -1.070740
v -0.940000 1.800000 -1.080740
v -1.039533 1.798637 -0.939999
v -1.012139 1.997005 -0.909999
v -1.061949 2.001363 -0.909999
v -1.089342 1.802995 -0.939999
v -1.443227 2.108000 0.537397
v -1.660343 2.297118 0.612719
v -0.818138 2.108000 1.094175
v -0.808773 2.299452 1.322820
v -1.199725 2.108000 0.940710
v -1.357500 2.297700 1.113427
v -0.888695 1.979864 1.201754
v -0.896272 2.169597 1.428666
v -1.537429 1.979846 0.646525
v -1.756566 2.168813 0.724442
v -1.288566 1.981442 1.045640
v -1.447319 2.171248 1.219959
v 1.238901 3.127949 1.571276
v 1.186138 3.151135 1.524560
v 1.187174 3.194506 1.582263
v 1.237025 3.114731 1.652465
v 1.184989 3.180000 1.666216
v 1.182164 3.122070 1.699536
v -1.957603 3.973966 0.817827
v -2.009980 4.016393 0.863631
v -1.135395 3.811888 1.578154
v -1.083676 3.766344 1.528309
v -1.707410 3.955794 1.367527
v -1.655340 3.913051 1.320612
v -1.213624 3.737083 1.660908
v -1.183437 3.801037 1.627034
v -2.065227 4.001409 0.914225
v -2.097457 3.936000 0.946488
v -1.756196 3.942275 1.413874
v -1.787272 3.876479 1.446461
v 1.275598 2.059438 1.130891
v 1.223383 2.108000 1.093715
v 1.186032 2.298280 1.337870
v 1.239080 2.249903 1.375907
v 1.238089 2.197875 1.416404
v 1.183269 2.150599 1.452957
v 1.217774 1.960742 1.206719
v 1.273632 2.008253 1.170087
v -1.443227 2.108000 -0.537396
v -1.660343 2.297118 -0.612718
v -0.818139 2.108000 -1.094175
v -0.808774 2.299452 -1.322819
v -1.199725 2.108000 -0.940709
v -1.357500 2.297700 -1.113426
v -0.888696 1.979864 -1.201754
v -0.896273 2.169597 -1.428666
v -1.537429 1.979846 -0.646524
v -1.756566 2.168813 -0.724441
v -1.288567 1.981442 -1.045639
v -1.447320 2.171248 -1.219958
v 1.238900 3.127949 -1.571277
v 1.186137 3.151135 -1.524561
v 1.187173 3.194506 -1.582264
v 1.237024 3.114731 -1.652466
v 1.184988 3.180000 -1.666216
v 1.182163 3.122070 -1.699537
v -1.957604 3.973966 -0.817826
v -2.009981 4.016393 -0.863630
v -1.135396 3.811888 -1.578153
v -1.083677 3.766344 -1.528309
v -1.707411 3.955794 -1.367526
v -1.655341 3.913051 -1.320611
v -1.213625 3.737083 -1.660907
v -1.183438 3.801037 -1.627034
v -2.065228 4.001409 -0.914224
v -2.097457 3.936000 -0.946487
v -1.756197 3.942275 -1.413873
v -1.787273 3.876479 -1.446460
v 1.275597 2.059438 -1.130892
v 1.223382 2.108000 -1.093716
v 1.186031 2.298280 -1.337871
v 1.239079 2.249903 -1.375908
v 1.238088 2.197875 -1.416405
v 1.183268 2.150599 -1.452958
v 1.217773 1.960742 -1.206720
v 1.273632 2.008253 -1.170088
# 156 positions

vt 0.175045 0.993652
vt 0.164459 0.993652
vt 0.164458 0.595601
vt 0.175045 0.595600
vt 0.217444 0.987300
vt 0.217444 0.601952
vt 0.122060 0.987300
vt 0.122059 0.601953
vt 0.175045 0.595600
vt 0.175045 0.993652
vt 0.164459 0.993652
vt 0.164458 0.595600
vt 0.217444 0.601952
vt 0.217444 0.987300
vt 0.122060 0.987300
vt 0.122059 0.601952
vt 0.175045 0.993652
vt 0.164459 0.993652
vt 0.164458 0.595601
vt 0.175045 0.595600
vt 0.217444 0.987300
vt 0.217444 0.601952
vt 0.122060 0.987300
vt 0.122059 0.601953
vt 0.175045 0.993652
vt 0.164459 0.993652
vt 0.164458 0.595601
vt 0.175045 0.595600
vt 0.217444 0.987300
vt 0.217444 0.601952
vt 0.122060 0.987300
vt 0.122059 0.601953
vt 0.117954 0.696221
vt 0.117954 0.989141
vt 0.089057 0.987712
vt 0.089057 0.694793
vt 0.060444 0.991998
vt 0.060444 0.699079
vt 0.023762 0.698327
vt 0.023762 0.991246
vt 0.009704 0.989140
vt 0.009705 0.696221
vt 0.046102 0.992707
vt 0.046102 0.699788
vt 0.034933 0.699659
vt 0.034932 0.992578
vt 0.063773 0.694074
vt 0.034840 0.694074
vt 0.034840 0.679715
vt 0.039151 0.669410
vt 0.049558 0.665142
vt 0.063773 0.665142
vt 0.117954 0.696221
vt 0.089057 0.694793
vt 0.089057 0.987712
vt 0.117954 0.989141
vt 0.060444 0.699079
vt 0.060444 0.991998
vt 0.023762 0.698327
vt 0.009705 0.696221
vt 0.009704 0.989140
vt 0.023762 0.991246
vt 0.046102 0.699788
vt 0.046102 0.992707
vt 0.034932 0.992578
vt 0.034933 0.699659
vt 0.063773 0.694074
vt 0.063773 0.665142
vt 0.049558 0.665142
vt 0.039151 0.669410
vt 0.034840 0.679715
vt 0.034840 0.694074
vt 0.117954 0.696221
vt 0.089057 0.694793
vt 0.089057 0.987712
vt 0.117954 0.989141
vt 0.060444 0.699079
vt 0.060444 0.991998
vt 0.023762 0.698327
vt 0.009705 0.696221
vt 0.009704 0.989140
vt 0.023762 0.991246
vt 0.046102 0.699788
vt 0.046102 0.992707
vt 0.034932 0.992578
vt 0.034933 0.699659
vt 0.063773 0.694074
vt 0.063773 0.665142
vt 0.049558 0.665142
vt 0.039151 0.669410
vt 0.034840 0.679715
vt 0.034840 0.694074
vt 0.117954 0.696221
vt 0.117954 0.989141
vt 0.089057 0.987712
vt 0.089057 0.694793
vt 0.060444 0.991998
vt 0.060444 0.699079
vt 0.023762 0.698327
vt 0.023762 0.991246
vt 0.009704 0.989140
vt 0.009705 0.696221
vt 0.046102 0.992707
vt 0.046102 0.699788
vt 0.034933 0.699659
vt 0.034932 0.992578
vt 0.063773 0.694074
vt 0.034840 0.694074
vt 0.034840 0.679715
vt 0.039151 0.669410
vt 0.049558 0.665142
vt 0.063773 0.665142
vt 0.950109 0.104635
vt 0.915030 0.331012
vt 0.767576 0.332025
vt 0.841920 0.089983
vt 0.683104 0.025816
vt 0.818932 0.082610
vt 0.746126 0.336095
vt 0.589562 0.278950
vt 0.834417 0.088825
vt 0.760062 0.335469
vt 0.753631 0.337306
vt 0.825584 0.085962
vt 0.747288 0.389689
vt 0.741750 0.389341
vt 0.743844 0.435988
vt 0.738916 0.432987
vt 0.735469 0.387866
vt 0.578489 0.348727
vt 0.733026 0.431011
vt 0.566401 0.414907
vt 0.902958 0.443903
vt 0.749401 0.438555
vt 0.754092 0.389045
vt 0.904397 0.389450
vt 0.061520 0.382893
vt 0.080232 0.510886
vt 0.069298 0.513110
vt 0.052629 0.378098
vt 0.549541 0.275078
vt 0.645195 0.007170
vt 0.986805 0.106184
vt 0.947904 0.343510
vt 0.936652 0.391930
vt 0.933265 0.445483
vt 0.535360 0.340433
vt 0.528338 0.413254
vt 0.072342 0.335313
vt 0.080914 0.339163
vt 0.497866 0.092539
vt 0.498428 0.330774
vt 0.225487 0.330774
vt 0.226049 0.092539
vt 0.243703 0.047316
vt 0.288841 0.019173
vt 0.435074 0.019173
vt 0.480212 0.047316
vt 0.083506 0.523822
vt 0.091278 0.513700
vt 0.069147 0.525910
vt 0.059875 0.519016
vt 0.091278 0.344653
vt 0.073212 0.387959
vt 0.041328 0.374001
vt 0.060569 0.331049
vt 0.951335 0.887911
vt 0.846969 0.904129
vt 0.769352 0.670634
vt 0.913260 0.669435
vt 0.694936 0.969753
vt 0.598576 0.726399
vt 0.748385 0.667145
vt 0.824807 0.911801
vt 0.839708 0.905421
vt 0.831193 0.908397
vt 0.755663 0.665799
vt 0.761962 0.667445
vt 0.748295 0.614898
vt 0.742903 0.615361
vt 0.572455 0.593153
vt 0.733468 0.574842
vt 0.743918 0.569856
vt 0.739220 0.572837
vt 0.901213 0.560134
vt 0.749251 0.567271
vt 0.585937 0.658645
vt 0.736808 0.616940
vt 0.902394 0.612905
vt 0.754941 0.615374
vt 0.128220 0.474067
vt 0.119329 0.478862
vt 0.135998 0.343849
vt 0.146932 0.346074
vt 0.559826 0.731344
vt 0.658639 0.988687
vt 0.986805 0.885739
vt 0.944821 0.656873
vt 0.933387 0.610267
vt 0.929864 0.558946
vt 0.543810 0.668413
vt 0.532545 0.597115
vt 0.147613 0.517796
vt 0.139042 0.521647
vt 0.150206 0.333137
vt 0.157978 0.343259
vt 0.135847 0.331049
vt 0.126575 0.337943
vt 0.157978 0.512306
vt 0.139912 0.469001
vt 0.108028 0.482958
vt 0.127269 0.525911
vt 0.238267 0.352924
vt 0.234063 0.344860
vt 0.489852 0.344859
vt 0.485648 0.352924
vt 0.494285 0.339067
vt 0.229630 0.339067
vt 0.422732 0.654496
vt 0.301182 0.654496
vt 0.255570 0.626958
vt 0.238215 0.583804
vt 0.485700 0.583804
vt 0.468344 0.626958
# 224 texture coordinates

vn 0.000000 -1.000000 0.000000
vn 0.000001 0.049938 0.998752
vn -0.000000 -0.049938 -0.998752
vn 0.087162 -0.996194 -0.000000
vn 0.990600 0.136794 0.000000
vn -0.990600 -0.136794 0.000001
vn -0.087162 -0.996194 0.000000
vn -0.990600 0.136794 0.000000
vn 0.990599 -0.136796 -0.000000
vn -0.000001 0.049938 -0.998752
vn 0.000000 -0.049938 0.998752
vn 0.988936 0.148340 0.000000
vn -0.192405 -0.077772 -0.978229
vn -0.192405 -0.077772 -0.978229
vn -0.988936 -0.148341 0.000002
vn -0.968614 -0.155008 -0.194317
vn -0.968614 -0.155008 -0.194317
vn -0.696706 -0.139687 -0.703625
vn -0.696706 -0.139687 -0.703625
vn -0.988936 0.148340 0.000000
vn 0.192408 -0.077773 -0.978228
vn 0.192408 -0.077773 -0.978228
vn 0.988936 -0.148340 0.000000
vn 0.968614 -0.155008 -0.194317
vn 0.968614 -0.155008 -0.194317
vn 0.696708 -0.139687 -0.703623
vn 0.696708 -0.139687 -0.703623
vn -0.192410 -0.077773 0.978228
vn -0.192410 -0.077773 0.978228
vn -0.968614 -0.155008 0.194319
vn -0.968614 -0.155008 0.194319
vn -0.696710 -0.139687 0.703621
vn -0.696710 -0.139687 0.703621
vn 0.192406 -0.077772 0.978229
vn 0.192406 -0.077772 0.978229
vn 0.968614 -0.155008 0.194318
vn 0.968614 -0.155008 0.194318
vn 0.696706 -0.139687 0.703625
vn 0.696706 -0.139687 0.703625
vn 0.423096 0.482880 -0.766692
vn 0.170424 0.506407 -0.845285
vn 0.198560 0.182484 -0.962950
vn 0.442398 0.479497 -0.757870
vn 0.373379 -0.466372 0.801926
vn 0.373188 0.122915 0.919577
vn -0.132553 0.158149 0.978478
vn -0.176124 -0.515836 0.838388
vn 0.539060 0.823549 -0.176580
vn 0.174568 0.935090 0.308435
vn 0.072444 0.770415 0.633414
vn 0.501556 0.665180 0.553152
vn 0.233928 0.972079 -0.018420
vn -0.236273 0.827208 0.509806
vn 0.211654 0.977324 -0.006418
vn -0.183018 0.978981 0.089999
vn -0.590818 0.186472 0.784960
vn -0.542096 -0.534207 0.648656
vn -0.946902 0.164211 0.276426
vn -0.817568 -0.527928 0.229944
vn 0.824949 0.518383 -0.225253
vn 0.812747 0.550313 -0.191305
vn 0.635955 0.212980 -0.741755
vn 0.549285 0.526433 -0.648964
vn 0.943929 0.212851 -0.252375
vn 0.879675 0.377465 -0.289296
vn 0.868528 0.217622 0.445308
vn 0.914375 -0.170557 0.367192
vn -0.090978 -0.894637 0.437434
vn 0.388875 -0.865614 0.315417
vn 0.407879 0.871990 -0.270681
vn 0.085950 0.893109 -0.441554
vn 0.282816 0.896647 -0.340646
vn 0.429531 0.895222 -0.118663
vn -0.280569 -0.897576 0.340056
vn -0.426931 -0.896128 0.121181
vn 0.927045 -0.338960 0.160295
vn 0.932140 0.357026 -0.060401
vn -0.090978 -0.894637 -0.437434
vn 0.388874 -0.865615 -0.315418
vn -0.426931 -0.896128 -0.121180
vn -0.280569 -0.897576 -0.340056
vn 0.434649 0.849833 -0.298099
vn 0.288350 0.829593 -0.478153
vn 0.288350 0.829593 -0.478153
vn -0.815173 0.522079 0.250851
vn 0.423096 0.482880 0.766692
vn 0.442398 0.479496 0.757871
vn 0.198561 0.182485 0.962950
vn 0.170425 0.506407 0.845285
vn 0.373378 -0.466373 -0.801926
vn -0.176125 -0.515836 -0.838387
vn -0.132554 0.158148 -0.978478
vn 0.373188 0.122918 -0.919577
vn 0.539061 0.823549 0.176582
vn 0.501555 0.665182 -0.553150
vn 0.072444 0.770415 -0.633414
vn 0.174568 0.935091 -0.308434
vn 0.233928 0.972079 0.018422
vn -0.236275 0.827207 -0.509807
vn -0.817569 -0.527928 -0.229943
vn -0.946902 0.164210 -0.276425
vn 0.211654 0.977324 0.006418
vn -0.183018 0.978982 -0.089999
vn 0.824949 0.518383 0.225253
vn 0.812747 0.550314 0.191304
vn -0.542097 -0.534207 -0.648655
vn -0.590819 0.186470 -0.784960
vn 0.549285 0.526433 0.648964
vn 0.635956 0.212981 0.741755
vn 0.943928 0.212853 0.252376
vn 0.914375 -0.170556 -0.367192
vn 0.868528 0.217625 -0.445307
vn 0.879675 0.377465 0.289297
vn 0.407879 0.871990 0.270681
vn 0.085951 0.893108 0.441554
vn 0.282816 0.896647 0.340646
vn 0.429531 0.895222 0.118663
vn 0.932139 0.357027 0.060401
vn 0.927045 -0.338960 -0.160295
vn 0.434649 0.849833 0.298100
vn 0.288350 0.829591 0.478157
vn 0.288350 0.829591 0.478157
vn -0.815174 0.522077 -0.250852
# 123 normals

usemtl DiningChairMat
f 36/1/1 33/2/1 13/3/1 16/4/1
f 35/5/2 36/1/2 16/4/2 15/6/2
f 33/2/3 34/7/3 14/8/3 13/3/3
f 60/9/4 20/10/4 17/11/4 57/12/4
f 59/13/5 19/14/5 20/10/5 60/9/5
f 57/12/6 17/11/6 18/15/6 58/16/6
f 80/17/7 77/18/7 37/19/7 40/20/7
f 79/21/8 80/17/8 40/20/8 39/22/8
f 77/18/9 78/23/9 38/24/9 37/19/9
f 56/25/1 53/26/1 73/27/1 76/28/1
f 55/29/10 56/25/10 76/28/10 75/30/10
f 53/26/11 54/31/11 74/32/11 73/27/11
f 1/33/12 2/34/12 4/35/12 3/36/12
f 3/36/2 4/35/2 6/37/2 5/38/2
f 8/39/13 10/40/14 2/41/3 1/42/3
f 5/38/15 6/37/15 11/43/16 7/44/17
f 10/40/14 8/39/13 9/45/18 12/46/19
f 12/46/19 9/45/18 7/44/17 11/43/16
f 3/47/1 5/48/1 7/49/1 9/50/1 8/51/1 1/52/1
f 21/53/20 23/54/20 24/55/20 22/56/20
f 23/54/2 25/57/2 26/58/2 24/55/2
f 28/59/21 21/60/3 22/61/3 30/62/22
f 25/57/23 27/63/24 31/64/25 26/58/23
f 30/62/22 32/65/26 29/66/27 28/59/21
f 32/65/26 31/64/25 27/63/24 29/66/27
f 23/67/1 21/68/1 28/69/1 29/70/1 27/71/1 25/72/1
f 41/73/12 43/74/12 44/75/12 42/76/12
f 43/74/10 45/77/10 46/78/10 44/75/10
f 48/79/28 41/80/11 42/81/11 50/82/29
f 45/77/15 47/83/30 51/84/31 46/78/15
f 50/82/29 52/85/32 49/86/33 48/79/28
f 52/85/32 51/84/31 47/83/30 49/86/33
f 43/87/1 41/88/1 48/89/1 49/90/1 47/91/1 45/92/1
f 61/93/20 62/94/20 64/95/20 63/96/20
f 63/96/10 64/95/10 66/97/10 65/98/10
f 68/99/34 70/100/35 62/101/11 61/102/11
f 65/98/23 66/97/23 71/103/36 67/104/37
f 70/100/35 68/99/34 69/105/38 72/106/39
f 72/106/39 69/105/38 67/104/37 71/103/36
f 63/107/1 65/108/1 67/109/1 69/110/1 68/111/1 61/112/1
f 113/113/40 84/114/41 102/115/42 94/116/43
f 116/117/44 98/118/45 105/119/46 88/120/47
f 95/121/48 101/122/49 106/123/50 97/124/51
f 103/125/52 109/126/53 106/123/50 101/122/49
f 100/127/54 107/128/55 109/126/53 103/125/52
f 88/120/47 105/119/46 110/129/56 92/130/57
f 92/130/57 110/129/56 108/131/58 90/132/59
f 82/133/60 99/134/61 104/135/62 86/136/63
f 86/136/63 104/135/62 102/115/42 84/114/41
f 114/137/64 93/138/65 96/139/66 115/140/67
f 87/141/68 117/142/69 116/117/44 88/120/47
f 112/143/70 83/144/71 84/114/41 113/113/40
f 85/145/72 81/146/73 82/133/60 86/136/63
f 83/144/71 85/145/72 86/136/63 84/114/41
f 91/147/74 87/141/68 88/120/47 92/130/57
f 89/148/75 91/147/74 92/130/57 90/132/59
f 114/137/64 115/140/67 118/149/76 111/150/77
f 125/151/78 155/152/79 117/153/69 87/154/68 91/155/74 89/156/75 127/157/80 129/158/81
f 95/159/48 93/138/65 94/160/43
f 97/161/51 98/162/45 96/139/66
f 95/159/48 97/161/51 96/139/66 93/138/65
f 100/127/54 103/125/52 104/135/82 99/134/61
f 103/125/52 101/122/83 102/115/84 104/135/82
f 106/123/50 109/126/53 110/129/56 105/119/46
f 109/126/53 107/128/85 108/131/58 110/129/56
f 101/122/83 95/121/48 94/116/43 102/115/84
f 105/119/46 98/118/45 97/124/51 106/123/50
f 112/163/70 113/164/40 114/137/64 111/150/77
f 116/165/44 117/166/69 118/149/76 115/140/67
f 93/138/65 114/137/64 113/164/40 94/160/43
f 98/162/45 116/165/44 115/140/67 96/139/66
f 151/167/86 132/168/87 140/169/88 122/170/89
f 154/171/90 126/172/91 143/173/92 136/174/93
f 133/175/94 135/176/95 144/177/96 139/178/97
f 141/179/98 139/178/97 144/177/96 147/180/99
f 128/181/100 90/132/59 108/131/58 146/182/101
f 138/183/102 145/184/103 107/128/55 100/127/54
f 120/185/104 137/186/105 99/134/61 82/133/60
f 138/183/102 141/179/98 147/180/99 145/184/103
f 126/172/91 130/187/106 148/188/107 143/173/92
f 130/187/106 128/181/100 146/182/101 148/188/107
f 120/185/104 124/189/108 142/190/109 137/186/105
f 124/189/108 122/170/89 140/169/88 142/190/109
f 152/191/110 153/192/111 134/193/112 131/194/113
f 125/195/78 126/172/91 154/171/90 155/196/79
f 150/197/114 151/167/86 122/170/89 121/198/115
f 123/199/116 124/189/108 120/185/104 119/200/117
f 121/198/115 122/170/89 124/189/108 123/199/116
f 129/201/81 130/187/106 126/172/91 125/195/78
f 127/202/80 128/181/100 130/187/106 129/201/81
f 152/191/110 149/203/118 156/204/119 153/192/111
f 119/200/117 120/185/104 82/133/60 81/146/73
f 89/148/75 90/132/59 128/181/100 127/202/80
f 133/205/94 132/206/87 131/194/113
f 135/207/95 134/193/112 136/208/93
f 133/205/94 131/194/113 134/193/112 135/207/95
f 138/183/102 137/186/105 142/190/120 141/179/98
f 141/179/98 142/190/120 140/169/121 139/178/122
f 144/177/96 143/173/92 148/188/107 147/180/99
f 147/180/99 148/188/107 146/182/101 145/184/123
f 139/178/122 140/169/121 132/168/87 133/175/94
f 100/127/54 99/134/61 137/186/105 138/183/102
f 143/173/92 144/177/96 135/176/95 136/174/93
f 108/131/58 107/128/85 145/184/123 146/182/101
f 150/209/114 149/203/118 152/191/110 151/210/86
f 154/211/90 153/192/111 156/204/119 155/212/79
f 112/213/70 111/214/77 149/215/118 150/216/114
f 155/152/79 156/217/119 118/218/76 117/153/69
f 131/194/113 132/206/87 151/210/86 152/191/110
f 136/208/93 134/193/112 153/192/111 154/211/90
f 111/214/77 118/218/76 156/217/119 149/215/118
f 119/219/117 81/220/73 85/221/72 83/222/71 112/213/70 150/216/114 121/223/115 123/224/116

# 112 faces
