# Wavefront Obj file
# 
# verts: 150 uv-s: 208
mtllib Drawer.mtl

g Drawer
#pivot 0.000000 0.000000 0.000000

v -2.519731 0.800000 0.682396
v -2.600269 0.800000 0.682396
v -2.519731 0.800000 -0.682396
v -2.600269 0.800000 -0.682396
v -2.600269 0.560000 0.682396
v -2.519731 0.560000 0.682396
v -2.600269 0.560000 -0.682396
v -2.519731 0.560000 -0.682396
v -2.560000 0.800000 0.840269
v -2.560000 0.800000 0.759732
v 2.560000 0.800000 0.840268
v 2.560000 0.800000 0.759731
v -2.560000 0.560000 0.759732
v -2.560000 0.560000 0.840269
v 2.560000 0.560000 0.759731
v 2.560000 0.560000 0.840268
v -3.200000 4.721709 1.258400
v -3.200000 0.878291 1.258400
v -3.200000 4.721709 -1.258400
v -3.200000 0.878291 -1.258400
v 3.200000 0.878291 -1.258400
v 3.200000 4.721709 -1.258400
v 3.200000 4.721709 1.258400
v 3.200000 0.878291 1.258400
v -3.112486 4.721709 1.178496
v -3.112486 0.878291 1.178496
v 3.112486 0.878291 1.178496
v 3.112486 4.721709 1.178496
v 3.112486 4.721709 1.258400
v -3.112486 4.721709 1.258400
v -3.112486 0.878291 1.258400
v 3.112486 0.878291 1.258400
v -3.234103 0.800000 -1.319511
v -3.234103 0.800000 1.319510
v -3.234103 4.800000 1.319510
v -3.234103 4.800000 -1.319511
v 3.234103 0.800000 1.319510
v 3.234103 0.800000 -1.319511
v 3.234103 4.800000 -1.319511
v 3.234103 4.800000 1.319510
v -3.234103 4.721709 1.319510
v -3.234103 0.878291 1.319510
v 3.234103 4.721709 -1.319511
v 3.234103 4.721709 1.319510
v 3.234103 0.878291 1.319510
v 3.234103 0.878291 -1.319511
v -3.234103 4.721709 -1.319511
v -3.234103 0.878291 -1.319511
v 2.519731 0.800000 -0.682396
v 2.600269 0.800000 -0.682396
v 2.519731 0.800000 0.682396
v 2.600269 0.800000 0.682396
v 2.600269 0.560000 -0.682396
v 2.519731 0.560000 -0.682396
v 2.600269 0.560000 0.682396
v 2.519731 0.560000 0.682396
v 2.560000 0.800000 -0.840269
v 2.560000 0.800000 -0.759732
v -2.560000 0.800000 -0.840268
v -2.560000 0.800000 -0.759731
v 2.560000 0.560000 -0.759732
v 2.560000 0.560000 -0.840269
v -2.560000 0.560000 -0.759731
v -2.560000 0.560000 -0.840268
v -2.800000 0.000000 1.040000
v -2.773666 0.810190 0.874478
v -2.800000 0.000000 0.720000
v -2.634478 0.810190 0.586334
v -2.480000 0.000000 1.040000
v -2.485522 0.810190 1.013666
v -2.480000 0.000000 0.720000
v -2.346334 0.810190 0.725522
v 2.800000 0.000000 1.040000
v 2.773666 0.810190 0.874478
v 2.800000 0.000000 0.720000
v 2.634478 0.810190 0.586334
v 2.480000 0.000000 1.040000
v 2.485522 0.810190 1.013666
v 2.480000 0.000000 0.720000
v 2.346334 0.810190 0.725522
v -2.800000 0.000000 -1.040000
v -2.773666 0.810190 -0.874478
v -2.800000 0.000000 -0.720000
v -2.634478 0.810190 -0.586334
v -2.480000 0.000000 -1.040000
v -2.485522 0.810190 -1.013666
v -2.480000 0.000000 -0.720000
v -2.346334 0.810190 -0.725522
v 2.800000 0.000000 -1.040000
v 2.773666 0.810190 -0.874478
v 2.800000 0.000000 -0.720000
v 2.634478 0.810190 -0.586334
v 2.480000 0.000000 -1.040000
v 2.485522 0.810190 -1.013666
v 2.480000 0.000000 -0.720000
v 2.346334 0.810190 -0.725522
v 0.000000 0.800000 1.319510
v 0.000000 4.721709 -1.258400
v 0.000000 0.800000 -1.319511
v 0.000000 0.878291 1.178496
v 0.000000 4.721709 1.178496
v 0.000000 0.878291 -1.319511
v 0.000000 0.878291 1.258400
v 0.000000 4.721709 1.258400
v -3.112486 4.721700 1.258400
v -3.112486 0.878300 1.258400
v -3.112486 3.440567 1.258400
v -3.112486 2.159433 1.258400
v 3.112486 0.878300 1.258400
v 3.112486 4.721700 1.258400
v 3.112486 2.159433 1.258400
v 3.112486 3.440567 1.258400
v -3.200000 0.878300 1.258400
v -3.200000 4.721700 1.258400
v -3.200000 2.159433 1.258400
v -3.200000 3.440567 1.258400
v 3.200000 0.878300 -1.258400
v 3.200000 4.721700 -1.258400
v 3.200000 2.159433 -1.258400
v 3.200000 3.440567 -1.258400
v 3.200000 0.878300 1.258400
v 3.200000 4.721700 1.258400
v 3.200000 2.159433 1.258400
v 3.200000 3.440567 1.258400
v -3.200000 4.721700 -1.258400
v -3.200000 0.878300 -1.258400
v -3.200000 3.440567 -1.258400
v -3.200000 2.159433 -1.258400
v -3.112486 0.878300 1.178496
v -3.112486 4.721700 1.178496
v -3.112486 2.159433 1.178496
v -3.112486 3.440567 1.178496
v 3.112486 4.721700 1.178496
v 3.112486 0.878300 1.178496
v 3.112486 3.440567 1.178496
v 3.112486 2.159433 1.178496
v 0.000000 0.878291 -1.258400
v 0.000000 0.878291 1.319510
v 0.000000 4.721709 -1.319511
v 0.000000 4.721709 1.319510
v 0.000000 4.800000 -1.319511
v 0.000000 4.800000 1.319510
v 0.000000 0.878300 -1.258400
v 0.000000 2.159433 -1.258400
v 0.000000 3.440567 -1.258400
v 0.000000 4.721700 -1.258400
v 0.000000 0.878300 1.178496
v 0.000000 2.159433 1.178496
v 0.000000 3.440567 1.178496
v 0.000000 4.721700 1.178496
# 150 positions

vt 0.247529 0.594864
vt 0.247515 0.207511
vt 0.253239 0.195996
vt 0.253252 0.594865
vt 0.252596 0.050696
vt 0.252596 0.043198
vt 0.379646 0.043198
vt 0.379646 0.050696
vt 0.252596 0.073037
vt 0.379646 0.073038
vt 0.379646 0.080535
vt 0.252595 0.080535
vt 0.252596 0.020856
vt 0.379646 0.020856
vt 0.722802 0.105133
vt 0.722788 0.113340
vt 0.252596 0.113340
vt 0.252610 0.105133
vt 0.722801 0.143588
vt 0.252609 0.143588
vt 0.252595 0.135381
vt 0.722788 0.135381
vt 0.252610 0.083092
vt 0.722802 0.083092
vt 0.254292 0.195475
vt 0.583140 0.194855
vt 0.583301 0.194819
vt 0.603765 0.206918
vt 0.610544 0.194885
vt 0.609488 0.195398
vt 0.254323 0.994247
vt 0.247543 0.982216
vt 0.253265 0.993733
vt 0.002300 0.677025
vt 0.002300 0.677025
vt 0.002301 0.849209
vt 0.002301 0.849209
vt 0.214920 0.997699
vt 0.214919 0.858469
vt 0.214920 0.858469
vt 0.214920 0.997699
vt 0.002301 0.858470
vt 0.002301 0.853628
vt 0.002301 0.853628
vt 0.002301 0.858470
vt 0.214919 0.677025
vt 0.214919 0.677025
vt 0.214920 0.849208
vt 0.214920 0.849208
vt 0.002300 0.495580
vt 0.002300 0.356350
vt 0.002300 0.356350
vt 0.002301 0.495580
vt 0.214920 0.853628
vt 0.214920 0.853628
vt 0.610546 0.993813
vt 0.603765 0.981780
vt 0.609488 0.993300
vt 0.578794 0.594861
vt 0.257770 0.594865
vt 0.257760 0.200708
vt 0.578794 0.200118
vt 0.935085 0.594349
vt 0.614002 0.594349
vt 0.614003 0.200111
vt 0.935085 0.199520
vt 0.939431 0.594348
vt 0.939433 0.993850
vt 0.939589 0.993880
vt 0.939589 0.594349
vt 0.237583 0.594864
vt 0.237571 0.207512
vt 0.214919 0.500421
vt 0.214919 0.495580
vt 0.214919 0.495580
vt 0.214919 0.500421
vt 0.593817 0.594349
vt 0.593819 0.206918
vt 0.603765 0.594349
vt 0.214919 0.356350
vt 0.214919 0.356350
vt 0.935084 0.989178
vt 0.614001 0.988587
vt 0.939589 0.194819
vt 0.257779 0.989022
vt 0.578795 0.989605
vt 0.583301 0.994305
vt 0.609488 0.594349
vt 0.583301 0.594562
vt 0.583148 0.994274
vt 0.583144 0.594564
vt 0.939429 0.194847
vt 0.252596 0.050696
vt 0.252596 0.043198
vt 0.379646 0.043198
vt 0.379646 0.050696
vt 0.252596 0.073037
vt 0.379646 0.073038
vt 0.379646 0.080535
vt 0.252595 0.080535
vt 0.252596 0.020856
vt 0.379646 0.020856
vt 0.722802 0.105133
vt 0.722788 0.113340
vt 0.252596 0.113340
vt 0.252610 0.105133
vt 0.722801 0.143588
vt 0.252609 0.143588
vt 0.252595 0.135381
vt 0.722788 0.135381
vt 0.252610 0.083092
vt 0.722802 0.083092
vt 0.854243 0.019736
vt 0.854243 0.146147
vt 0.805031 0.150983
vt 0.805031 0.024572
vt 0.755819 0.155819
vt 0.755819 0.029407
vt 0.952666 0.029407
vt 0.952666 0.155819
vt 0.903454 0.150983
vt 0.903454 0.024572
vt 0.876241 0.154622
vt 0.876241 0.161696
vt 0.869166 0.161696
vt 0.869166 0.154622
vt 0.854243 0.019736
vt 0.805031 0.024572
vt 0.805031 0.150983
vt 0.854243 0.146147
vt 0.755819 0.029407
vt 0.755819 0.155819
vt 0.952666 0.029407
vt 0.903454 0.024572
vt 0.903454 0.150983
vt 0.952666 0.155819
vt 0.876241 0.154622
vt 0.869166 0.154622
vt 0.869166 0.161696
vt 0.876241 0.161696
vt 0.854243 0.019736
vt 0.805031 0.024572
vt 0.805031 0.150983
vt 0.854243 0.146147
vt 0.755819 0.029407
vt 0.755819 0.155819
vt 0.952666 0.029407
vt 0.903454 0.024572
vt 0.903454 0.150983
vt 0.952666 0.155819
vt 0.876241 0.154622
vt 0.869166 0.154622
vt 0.869166 0.161696
vt 0.876241 0.161696
vt 0.854243 0.019736
vt 0.854243 0.146147
vt 0.805031 0.150983
vt 0.805031 0.024572
vt 0.755819 0.155819
vt 0.755819 0.029407
vt 0.952666 0.029407
vt 0.952666 0.155819
vt 0.903454 0.150983
vt 0.903454 0.024572
vt 0.876241 0.154622
vt 0.876241 0.161696
vt 0.869166 0.161696
vt 0.869166 0.154622
vt 0.002300 0.500421
vt 0.002301 0.500421
vt 0.002301 0.179325
vt 0.002301 0.179325
vt 0.214919 0.179325
vt 0.214919 0.179325
vt 0.002301 0.504841
vt 0.002300 0.504841
vt 0.002301 0.997700
vt 0.002301 0.997700
vt 0.073173 0.504841
vt 0.073174 0.677025
vt 0.144046 0.853628
vt 0.144046 0.849208
vt 0.073174 0.853628
vt 0.073174 0.849208
vt 0.073173 0.500421
vt 0.144046 0.500421
vt 0.144046 0.504841
vt 0.214919 0.504841
vt 0.144046 0.858470
vt 0.073174 0.858470
vt 0.144046 0.495580
vt 0.144046 0.356350
vt 0.073173 0.495580
vt 0.073174 0.356350
vt 0.144047 0.997700
vt 0.073174 0.997700
vt 0.144046 0.179325
vt 0.073174 0.179325
vt 0.144046 0.677025
vt 0.214919 0.504841
vt 0.073174 0.002300
vt 0.002301 0.002300
vt 0.144047 0.002300
vt 0.214919 0.002301
vt 0.214920 0.002301
vt 0.002301 0.002300
vt 0.593815 0.981780
vt 0.237595 0.982216
# 208 texture coordinates

vn 0.000000 -1.000000 0.000000
vn 0.000000 1.000000 0.000000
vn 1.000000 0.000000 0.000000
vn -1.000000 0.000000 0.000000
vn 0.000000 0.000000 1.000000
vn -0.000000 0.000000 -1.000000
vn -0.972120 0.074020 -0.222493
vn 0.221560 -0.117465 -0.968046
vn 0.972120 -0.074020 0.222493
vn -0.221560 0.117464 0.968046
vn 0.972121 0.074020 -0.222493
vn -0.221560 -0.117465 -0.968046
vn -0.972120 -0.074020 0.222493
vn 0.221560 0.117464 0.968046
vn -0.972120 0.074020 0.222493
vn 0.221560 -0.117465 0.968046
vn 0.972120 -0.074020 -0.222493
vn -0.221560 0.117464 -0.968046
vn 0.972120 0.074020 0.222493
vn -0.221560 -0.117465 0.968046
vn -0.972120 -0.074020 -0.222493
vn 0.221560 0.117464 -0.968046
# 22 normals

usemtl DrawerMat
f 104/1/1 29/2/1 44/3/1 140/4/1
f 2/5/2 1/6/2 3/7/2 4/8/2
f 5/9/1 7/10/1 8/11/1 6/12/1
f 3/7/3 1/6/3 6/13/3 8/14/3
f 2/5/4 4/8/4 7/10/4 5/9/4
f 10/15/2 9/16/2 11/17/2 12/18/2
f 13/19/1 15/20/1 16/21/1 14/22/1
f 11/17/5 9/16/5 14/22/5 16/21/5
f 10/15/6 12/18/6 15/23/6 13/24/6
f 23/25/1 22/26/1 43/27/1 44/3/1
f 31/28/2 18/29/2 42/30/2
f 17/31/1 30/32/1 41/33/1
f 101/34/5 150/35/5 133/36/5 28/37/5
f 117/38/3 121/39/3 24/40/3 21/41/3
f 23/42/5 29/43/5 110/44/5 122/45/5
f 147/46/5 100/47/5 27/48/5 134/49/5
f 17/50/4 19/51/4 125/52/4 114/53/4
f 134/49/4 27/48/4 32/54/4 109/55/4
f 24/56/2 32/57/2 45/58/2
f 141/59/2 142/60/2 40/61/2 39/62/2
f 99/63/1 97/64/1 34/65/1 33/66/1
f 29/2/1 23/25/1 44/3/1
f 137/67/2 21/68/2 46/69/2 102/70/2
f 101/71/1 28/72/1 29/2/1 104/1/1
f 106/73/5 113/74/5 18/75/5 31/76/5
f 100/77/2 26/78/2 31/28/2 103/79/2
f 113/74/4 126/80/4 20/81/4 18/75/4
f 38/82/3 46/69/3 45/58/3 37/83/3
f 34/65/4 42/30/4 48/84/4 33/66/4
f 43/27/3 39/62/3 40/61/3 44/3/3
f 41/33/4 35/85/4 36/86/4 47/87/4
f 102/70/6 99/63/6 33/66/6 48/84/6
f 138/88/5 97/64/5 37/83/5 45/58/5
f 142/60/5 140/4/5 44/3/5 40/61/5
f 141/59/6 139/89/6 47/87/6 36/86/6
f 21/68/2 24/56/2 45/58/2 46/69/2
f 103/79/2 31/28/2 42/30/2 138/88/2
f 19/90/1 17/31/1 41/33/1 47/87/1
f 98/91/1 19/90/1 47/87/1 139/89/1
f 18/29/2 20/92/2 48/84/2 42/30/2
f 50/93/2 49/94/2 51/95/2 52/96/2
f 53/97/1 55/98/1 56/99/1 54/100/1
f 51/95/4 49/94/4 54/101/4 56/102/4
f 50/93/3 52/96/3 55/98/3 53/97/3
f 58/103/2 57/104/2 59/105/2 60/106/2
f 61/107/1 63/108/1 64/109/1 62/110/1
f 59/105/6 57/104/6 62/110/6 64/109/6
f 58/103/5 60/106/5 63/111/5 61/112/5
f 65/113/7 66/114/7 68/115/7 67/116/7
f 67/116/8 68/115/8 72/117/8 71/118/8
f 71/119/9 72/120/9 70/121/9 69/122/9
f 69/122/10 70/121/10 66/114/10 65/113/10
f 67/123/1 71/124/1 69/125/1 65/126/1
f 73/127/11 75/128/11 76/129/11 74/130/11
f 75/128/12 79/131/12 80/132/12 76/129/12
f 79/133/13 77/134/13 78/135/13 80/136/13
f 77/134/14 73/127/14 74/130/14 78/135/14
f 75/137/1 73/138/1 77/139/1 79/140/1
f 81/141/15 83/142/15 84/143/15 82/144/15
f 83/142/16 87/145/16 88/146/16 84/143/16
f 87/147/17 85/148/17 86/149/17 88/150/17
f 85/148/18 81/141/18 82/144/18 86/149/18
f 83/151/1 81/152/1 85/153/1 87/154/1
f 89/155/19 90/156/19 92/157/19 91/158/19
f 91/158/20 92/157/20 96/159/20 95/160/20
f 95/161/21 96/162/21 94/163/21 93/164/21
f 93/164/22 94/163/22 90/156/22 89/155/22
f 91/165/1 95/166/1 93/167/1 89/168/1
f 121/39/5 109/55/5 32/54/5 24/40/5
f 30/169/5 17/50/5 114/53/5 105/170/5
f 28/37/4 133/36/4 110/44/4 29/43/4
f 98/171/6 146/172/6 125/52/6 19/51/6
f 143/173/6 137/174/6 20/81/6 126/80/6
f 130/175/3 25/176/3 30/169/3 105/170/3
f 22/177/3 23/42/3 122/45/3 118/178/3
f 132/179/5 149/180/5 150/35/5 130/175/5
f 134/49/4 109/55/4 111/181/4 136/182/4
f 136/182/4 111/181/4 112/183/4 135/184/4
f 135/184/4 112/183/4 110/44/4 133/36/4
f 130/175/3 105/170/3 107/185/3 132/179/3
f 132/179/3 107/185/3 108/186/3 131/187/3
f 131/187/3 108/186/3 106/73/3 129/188/3
f 109/55/5 121/39/5 123/189/5 111/181/5
f 111/181/5 123/189/5 124/190/5 112/183/5
f 112/183/5 124/190/5 122/45/5 110/44/5
f 126/80/4 113/74/4 115/191/4 128/192/4
f 128/192/4 115/191/4 116/193/4 127/194/4
f 127/194/4 116/193/4 114/53/4 125/52/4
f 121/39/3 117/38/3 119/195/3 123/189/3
f 123/189/3 119/195/3 120/196/3 124/190/3
f 124/190/3 120/196/3 118/178/3 122/45/3
f 113/74/5 106/73/5 108/186/5 115/191/5
f 115/191/5 108/186/5 107/185/5 116/193/5
f 116/193/5 107/185/5 105/170/5 114/53/5
f 143/173/6 126/80/6 128/192/6 144/197/6
f 144/197/6 128/192/6 127/194/6 145/198/6
f 145/198/6 127/194/6 125/52/6 146/172/6
f 147/46/5 134/49/5 136/182/5 148/199/5
f 148/199/5 136/182/5 135/184/5 149/180/5
f 149/180/5 135/184/5 133/36/5 150/35/5
f 26/200/3 129/188/3 106/73/3 31/76/3
f 131/187/5 148/199/5 149/180/5 132/179/5
f 129/188/5 147/46/5 148/199/5 131/187/5
f 120/201/6 145/198/6 146/172/6 118/202/6
f 119/203/6 144/197/6 145/198/6 120/201/6
f 117/204/6 143/173/6 144/197/6 119/203/6
f 117/204/6 21/205/6 137/174/6 143/173/6
f 22/206/6 118/202/6 146/172/6 98/171/6
f 22/26/1 98/91/1 139/89/1 43/27/1
f 32/57/2 103/79/2 138/88/2 45/58/2
f 39/62/6 43/27/6 139/89/6 141/59/6
f 35/85/5 41/33/5 140/4/5 142/60/5
f 42/30/5 34/65/5 97/64/5 138/88/5
f 46/69/6 38/82/6 99/63/6 102/70/6
f 27/207/2 100/77/2 103/79/2 32/57/2
f 25/208/1 101/71/1 104/1/1 30/32/1
f 20/92/2 137/67/2 102/70/2 48/84/2
f 38/82/1 37/83/1 97/64/1 99/63/1
f 36/86/2 35/85/2 142/60/2 141/59/2
f 129/188/5 26/200/5 100/47/5 147/46/5
f 25/176/5 130/175/5 150/35/5 101/34/5
f 30/32/1 104/1/1 140/4/1 41/33/1

# 122 faces
